<mxfile host="app.diagrams.net" modified="2023-06-13T09:31:34.879Z" agent="Mozilla/5.0 (Windows NT 10.0; Win64; x64; rv:109.0) Gecko/20100101 Firefox/114.0" version="21.3.7" etag="UmVUxRDn0cyuNEXe6mZt" type="github">
  <diagram name="Page-1" id="Yluz_DCrIqXGjOBsIj_4">
    <mxGraphModel>
      <root>
        <mxCell id="0" />
        <mxCell id="1" parent="0" />
      </root>
    </mxGraphModel>
  </diagram>
</mxfile>
